HIERARCHY
ROOT Hips
{
	OFFSET 0.000000 0.000000 0.000000
	CHANNELS 6 Xposition Yposition Zposition Xrotation Yrotation Zrotation
	JOINT LeftUpLeg_virtual
	{
		OFFSET 0.000000 0.000000 0.000000
		CHANNELS 3 Xrotation Yrotation Zrotation
		JOINT LeftUpLeg
		{
			OFFSET 10.205400 -3.823500 0.155100
			CHANNELS 3 Xrotation Yrotation Zrotation
			JOINT LeftLeg
			{
				OFFSET 0.708757 -12.982077 0.567790
				CHANNELS 3 Xrotation Yrotation Zrotation
				JOINT LeftFoot
				{
					OFFSET -0.708756 -10.717838 -2.184338
					CHANNELS 3 Xrotation Yrotation Zrotation
					JOINT LeftToeBase
					{
						OFFSET 0.108149 -7.191104 7.560241
						CHANNELS 3 Xrotation Yrotation Zrotation
						JOINT LeftToe_End
						{
							OFFSET 0.070230 0.081724 4.490308
							CHANNELS 3 Xrotation Yrotation Zrotation
							End Site
							{
								OFFSET 0 0 0
							}
						}
					}
				}
			}
		}
	}
	JOINT RightUpLeg_virtual
	{
		OFFSET 0.000000 0.000000 0.000000
		CHANNELS 3 Xrotation Yrotation Zrotation
		JOINT RightUpLeg
		{
			OFFSET -10.205400 -3.823500 0.005500
			CHANNELS 3 Xrotation Yrotation Zrotation
			JOINT RightLeg
			{
				OFFSET -0.708756 -12.982134 0.610632
				CHANNELS 3 Xrotation Yrotation Zrotation
				JOINT RightFoot
				{
					OFFSET 0.708754 -10.717769 -1.945823
					CHANNELS 3 Xrotation Yrotation Zrotation
					JOINT RightToeBase
					{
						OFFSET -0.108140 -7.191069 7.372968
						CHANNELS 3 Xrotation Yrotation Zrotation
						JOINT RightToe_End
						{
							OFFSET -0.070227 0.081735 4.479403
							CHANNELS 3 Xrotation Yrotation Zrotation
							End Site
							{
								OFFSET 0 0 0
							}
						}
					}
				}
			}
		}
	}
	JOINT Spine_virtual
	{
		OFFSET 0.000000 0.000000 0.000000
		CHANNELS 3 Xrotation Yrotation Zrotation
		JOINT Spine
		{
			OFFSET 0.000000 6.876099 0.125700
			CHANNELS 3 Xrotation Yrotation Zrotation
			JOINT Spine1
			{
				OFFSET 0.000000 5.730043 0.104720
				CHANNELS 3 Xrotation Yrotation Zrotation
				JOINT Spine1_split
				{
					OFFSET 0.000000 5.730043 0.104720
					CHANNELS 3 Xrotation Yrotation Zrotation
					JOINT Spine2
					{
						OFFSET 0.000000 5.730043 0.104720
						CHANNELS 3 Xrotation Yrotation Zrotation
						JOINT Neck_virtual
						{
							OFFSET 0.000000 0.000000 0.000000
							CHANNELS 3 Xrotation Yrotation Zrotation
							JOINT Neck
							{
								OFFSET 0.000000 10.314075 0.188496
								CHANNELS 3 Xrotation Yrotation Zrotation
								JOINT Head
								{
									OFFSET 0.000000 7.643700 -2.377400
									CHANNELS 3 Xrotation Yrotation Zrotation
									JOINT HeadTop_End
									{
										OFFSET 0.000000 43.788605 -13.619600
										CHANNELS 3 Xrotation Yrotation Zrotation
										End Site
										{
											OFFSET 0 0 0
										}
									}
								}
							}
						}
						JOINT LeftShoulder_virtual
						{
							OFFSET 0.000000 0.000000 0.000000
							CHANNELS 3 Xrotation Yrotation Zrotation
							JOINT LeftShoulder
							{
								OFFSET 2.196100 4.412489 0.087492
								CHANNELS 3 Xrotation Yrotation Zrotation
								JOINT LeftShoulder_split
								{
									OFFSET 2.196100 4.412489 0.087492
									CHANNELS 3 Xrotation Yrotation Zrotation
									JOINT LeftArm
									{
										OFFSET 8.771219 -2.981674 -0.026999
										CHANNELS 3 Xrotation Yrotation Zrotation
										JOINT LeftForeArm
										{
											OFFSET 8.512804 0.000000 -0.000000
											CHANNELS 3 Xrotation Yrotation Zrotation
											JOINT LeftHand
											{
												OFFSET 18.484802 0.000000 -0.000000
												CHANNELS 3 Xrotation Yrotation Zrotation
												End Site
												{
													OFFSET 0 0 0
												}
											}
										}
									}
								}
							}
						}
						JOINT RightShoulder_virtual
						{
							OFFSET 0.000000 0.000000 0.000000
							CHANNELS 3 Xrotation Yrotation Zrotation
							JOINT RightShoulder
							{
								OFFSET -2.196100 4.412496 0.070690
								CHANNELS 3 Xrotation Yrotation Zrotation
								JOINT RightShoulder_split
								{
									OFFSET -2.196100 4.412496 0.070690
									CHANNELS 3 Xrotation Yrotation Zrotation
									JOINT RightArm
									{
										OFFSET -8.771282 -2.981682 -0.094208
										CHANNELS 3 Xrotation Yrotation Zrotation
										JOINT RightForeArm
										{
											OFFSET -8.494598 0.000000 0.000000
											CHANNELS 3 Xrotation Yrotation Zrotation
											JOINT RightHand
											{
												OFFSET -18.483803 0.000000 0.000001
												CHANNELS 3 Xrotation Yrotation Zrotation
												End Site
												{
													OFFSET 0 0 0
												}
											}
										}
									}
								}
							}
						}
					}
				}
			}
		}
	}
}
MOTION
Frames: 6
Frame Time: 0.03333333
-0.551147 29.706835 -1.723478 0.000000 0.000000 0.000000 30.727273 -62.240891 33.722061 -54.523355 5.655938 2.003799 42.066814 -11.031637 0.926815 1.610214 -11.000117 5.968582 6.286483 2.684812 -0.404505 0.000000 0.000000 0.000000 30.884179 -62.237565 33.978159 -33.836453 -1.816162 -19.268017 50.727713 9.831165 -2.675886 -32.118705 -16.906038 23.508005 4.625591 6.141029 -14.623835 0.000000 0.000000 0.000000 24.394540 -57.287262 28.343446 2.169979 7.983547 6.675681 11.223819 3.107088 7.293758 0.071117 -0.973410 0.146660 0.000000 0.000000 0.000000 13.203288 5.817691 7.338107 -5.920788 9.242219 12.487729 3.688818 -50.825835 -18.758305 0.000000 0.000000 0.000000 11.364039 3.270195 6.736406 -0.992744 -5.883901 -4.913665 5.654294 2.481100 -4.328065 -51.084508 -33.827714 -98.394599 3.498966 -18.309420 3.192689 0.000000 0.000000 0.000000 11.847177 3.619623 7.976988 2.713956 12.010242 17.823421 -14.784810 -3.149600 -1.234323 -48.881444 10.786114 77.328677 -3.820211 -4.446012 3.371675 0.000000 0.000000 0.000000 
-0.549092 29.718733 -1.662289 0.000000 0.000000 0.000000 30.821512 -62.221548 33.759849 -54.581814 5.648671 1.979601 42.015823 -10.962997 0.926797 1.683546 -11.026982 6.028729 6.216239 2.681109 -0.345081 0.000000 0.000000 0.000000 30.937728 -62.192253 33.982322 -33.787132 -1.821323 -19.234368 50.692735 9.818353 -2.678643 -32.145899 -16.914101 23.465306 4.623697 6.154245 -14.599162 0.000000 0.000000 0.000000 24.447047 -57.217547 28.331258 2.127152 7.990991 6.669129 11.240039 3.099809 7.286360 0.074146 -0.968789 0.149694 0.000000 0.000000 0.000000 13.211112 5.819634 7.337996 -5.877964 9.298458 12.498116 3.585656 -50.729598 -18.816568 0.000000 0.000000 0.000000 11.379794 3.266269 6.749542 -0.986778 -5.789734 -4.971166 5.754555 2.434671 -4.269448 -51.075629 -33.884493 -98.423436 3.509618 -18.297273 3.180787 0.000000 0.000000 0.000000 11.852650 3.609514 7.981831 2.711273 11.988559 17.841887 -14.667365 -3.048447 -1.178485 -48.710047 10.714534 77.322031 -3.829063 -4.431486 3.387892 0.000000 0.000000 0.000000 
-0.544693 29.739716 -1.596170 0.000000 0.000000 0.000000 30.896081 -62.143363 33.782204 -54.580670 5.656747 1.889359 41.924712 -10.805603 0.926928 1.721325 -11.039233 6.125534 6.031520 2.682422 -0.258263 0.000000 0.000000 0.000000 31.010319 -62.139948 34.015141 -33.764067 -1.892258 -19.272897 50.592560 9.822102 -2.681750 -32.023810 -16.935290 23.566682 4.447247 6.215360 -14.575156 0.000000 0.000000 0.000000 24.507361 -57.123146 28.312852 2.067066 8.001200 6.643414 11.252050 3.113347 7.264959 0.077387 -0.974108 0.149127 0.000000 0.000000 0.000000 13.235711 5.836507 7.318491 -5.668385 9.380887 12.573221 3.524641 -50.651242 -18.874058 0.000000 0.000000 0.000000 11.397141 3.277265 6.745473 -0.967641 -5.676792 -5.010091 5.838519 2.384291 -4.208408 -51.049705 -33.980471 -98.464246 3.513213 -18.341752 3.184876 0.000000 0.000000 0.000000 11.873750 3.608742 7.958867 2.706902 11.909519 17.891237 -14.610301 -2.962181 -1.176687 -48.355434 10.898106 77.285612 -3.800449 -4.381650 3.379270 0.000000 0.000000 0.000000 
-0.534167 29.761917 -1.533672 0.000000 0.000000 0.000000 30.908273 -62.011349 33.758374 -54.533269 5.705412 1.751198 41.866143 -10.580750 0.931193 1.678112 -11.031768 6.241427 5.913204 2.692151 -0.208863 0.000000 0.000000 0.000000 31.059066 -62.068811 34.037981 -33.756741 -1.996719 -19.364122 50.440182 9.848251 -2.687660 -31.829102 -16.986073 23.789465 4.207498 6.306277 -14.562976 0.000000 0.000000 0.000000 24.531273 -57.007723 28.271439 2.003074 8.010204 6.595544 11.266802 3.142623 7.232480 0.076116 -0.986466 0.147911 0.000000 0.000000 0.000000 13.276314 5.864679 7.283045 -5.309115 9.478244 12.700231 3.501007 -50.613785 -18.921818 0.000000 0.000000 0.000000 11.416540 3.300154 6.721255 -0.934807 -5.563805 -5.027011 5.879895 2.347005 -4.191086 -51.007286 -34.140851 -98.489853 3.509371 -18.443599 3.202996 0.000000 0.000000 0.000000 11.902768 3.618027 7.913475 2.706912 11.782300 17.953096 -14.581740 -2.901017 -1.207915 -47.897292 11.307979 77.252691 -3.739485 -4.306165 3.351817 0.000000 0.000000 0.000000 
-0.516707 29.779341 -1.460768 0.000000 0.000000 0.000000 30.844434 -61.844610 33.681521 -54.486181 5.775319 1.568826 41.900748 -10.353126 0.955919 1.604494 -11.018991 6.336762 5.958911 2.710973 -0.230464 0.000000 0.000000 0.000000 31.052922 -61.946394 34.007648 -33.731811 -2.116392 -19.471806 50.301266 9.871608 -2.699466 -31.718302 -17.094434 23.983986 4.161192 6.392761 -14.566997 0.000000 0.000000 0.000000 24.492678 -56.876457 28.194840 1.956224 8.005200 6.522741 11.292497 3.179793 7.190035 0.073617 -1.002932 0.148810 0.000000 0.000000 0.000000 13.329089 5.897322 7.237364 -4.843350 9.582415 12.852799 3.504379 -50.637312 -18.957736 0.000000 0.000000 0.000000 11.437176 3.328999 6.677511 -0.888921 -5.467336 -5.021214 5.874124 2.341449 -4.226139 -50.940469 -34.398981 -98.471459 3.509705 -18.587462 3.237825 0.000000 0.000000 0.000000 11.931874 3.636742 7.852459 2.714452 11.624224 18.007736 -14.539716 -2.834589 -1.246466 -47.426464 11.865629 77.242814 -3.653920 -4.205271 3.319430 0.000000 0.000000 0.000000 
-0.493857 29.786606 -1.381096 0.000000 0.000000 0.000000 30.701096 -61.659219 33.536922 -54.467729 5.847548 1.371899 42.028415 -10.174835 0.996827 1.552478 -11.033417 6.402685 6.047963 2.736752 -0.272630 0.000000 0.000000 0.000000 30.955490 -61.756303 33.878797 -33.672730 -2.231781 -19.568610 50.218833 9.862108 -2.712885 -31.756251 -17.284654 24.071040 4.356062 6.461196 -14.592151 0.000000 0.000000 0.000000 24.386168 -56.734679 28.076606 1.938639 7.975650 6.432896 11.332524 3.217570 7.139453 0.069364 -1.021069 0.147340 0.000000 0.000000 0.000000 13.386378 5.930648 7.185789 -4.319296 9.691005 13.008177 3.523925 -50.733255 -18.990911 0.000000 0.000000 0.000000 11.460389 3.359964 6.615328 -0.832048 -5.392398 -5.002273 5.851299 2.359833 -4.276337 -50.858985 -34.777336 -98.401497 3.529309 -18.773934 3.291250 0.000000 0.000000 0.000000 11.956671 3.662274 7.781212 2.725725 11.456911 18.036923 -14.445433 -2.739789 -1.304697 -47.027283 12.464785 77.268072 -3.549011 -4.088556 3.297446 0.000000 0.000000 0.000000 
